<svg width="70" height="48" viewBox="0 0 70 48" fill="none" xmlns="http://www.w3.org/2000/svg">
<g clip-path="url(#clip0_2_217)">
<path d="M21.4251 21.9529H12.4146V32.0283H21.4251V21.9529Z" fill="#CCCCCC"/>
<path d="M7.82743 47.1824H3.24026L2.74878 43.2505H8.31892L7.82743 47.1824Z" fill="#E6E6E6"/>
<path d="M17.0387 44.3344L16.8839 46.4506C16.8769 46.5464 16.8904 46.6426 16.9236 46.7327C16.9568 46.8228 17.0089 46.9048 17.0764 46.9732C17.1439 47.0415 17.2252 47.0946 17.3149 47.1289C17.4046 47.1633 17.5006 47.178 17.5965 47.1722L18.6835 47.1064C18.7338 47.1033 18.7829 47.0892 18.8272 47.065C18.8715 47.0409 18.9099 47.0073 18.9398 46.9666C18.9696 46.9259 18.9901 46.8791 18.9998 46.8296C19.0095 46.7801 19.0082 46.729 18.996 46.6801L18.3926 44.2667L17.0387 44.3344Z" fill="#E6E6E6"/>
<path d="M26.1307 45.5858C27.41 45.8851 28.3239 46.3105 28.9242 46.8862C29.138 47.0896 29.4178 47.2096 29.7126 47.2241C30.0891 47.2439 30.3969 47.2017 30.6283 47.0984H30.6283C30.6876 47.0722 30.7388 47.0307 30.7766 46.9781C30.8144 46.9256 30.8375 46.8638 30.8433 46.7993C30.8504 46.7338 30.8397 46.6676 30.8125 46.6076C30.7853 46.5476 30.7425 46.4959 30.6887 46.458L27.6546 44.2991L26.3658 44.8147L26.0652 45.1154C26.0326 45.1479 26.0081 45.1876 25.9934 45.2312C25.9788 45.2749 25.9745 45.3213 25.9809 45.3669C25.9872 45.4125 26.0041 45.456 26.0301 45.494C26.0561 45.532 26.0905 45.5634 26.1307 45.5858H26.1307Z" fill="#E6E6E6"/>
<path d="M22.1937 11.0333L13.5213 10.953C13.5431 9.68988 13.837 8.44949 14.4794 7.33952C14.9013 6.61053 14.8922 5.81717 14.7905 5.14878C14.6336 4.11732 14.9985 3.06198 15.8093 2.40538C16.4289 1.90273 17.2109 1.64399 18.0081 1.67788L18.1765 1.6849C18.725 1.70769 19.259 1.86793 19.7295 2.15089C20.1999 2.43384 20.5918 2.83046 20.869 3.30432C21.1508 3.81018 21.2644 4.39254 21.1935 4.96723C21.1385 5.50797 21.27 6.05421 21.5777 6.60566C22.1085 7.81656 22.2234 9.36606 22.1937 11.0333Z" fill="#2F2E41"/>
<path d="M27.996 44.4117L26.294 44.8558L18.0057 26.799L18.5237 44.4117H16.8216C15.0029 36.1254 11.7192 26.5622 13.1955 23.5429L22.0018 23.0249L27.996 44.4117Z" fill="#58AD70"/>
<path d="M17.9317 8.00227C19.1986 8.00227 20.2257 6.97516 20.2257 5.70817C20.2257 4.44118 19.1986 3.41408 17.9317 3.41408C16.6647 3.41408 15.6376 4.44118 15.6376 5.70817C15.6376 6.97516 16.6647 8.00227 17.9317 8.00227Z" fill="#FFB9B9"/>
<path d="M19.9298 9.92634L16.1556 9.70433C16.5255 8.8554 16.6732 8.03791 16.5256 7.26224H19.3377C19.3314 7.8578 19.6277 8.88801 19.9298 9.92634Z" fill="#FFB9B9"/>
<path d="M22.2978 23.6909L14.0096 24.283L14.8606 9.59334L16.3036 9.18631L17.9317 9.55631L19.5597 8.74225L20.5958 9.11234L22.2978 23.6909Z" fill="#58AD70"/>
<path d="M15.4156 34.2733L9.75435 32.9783C11.4377 27.396 14.4704 14.6254 13.4915 10.0743L16.4516 8.74228L15.4156 34.2733Z" fill="#E6E6E6"/>
<path d="M12.6775 18.1407L10.5314 16.8086L12.3616 11.4482C12.5657 10.8951 12.9567 10.4307 13.467 10.1353L14.0835 9.77834L13.7135 15.1805L12.6775 18.1407Z" fill="#E6E6E6"/>
<path d="M27.2191 33.0523C25.4322 34.0861 20.9658 34.6623 19.0047 33.9403C18.8604 28.8967 18.5774 14.63 19.4857 8.59428L22.7419 9.92634L22.4459 13.9225C20.8892 17.341 25.4095 29.2477 27.2191 33.0523Z" fill="#E6E6E6"/>
<path d="M26.9601 17.4747L24.9619 16.8086L22.2978 13.7745L22.7419 9.92632L27.182 16.1426L26.9601 17.4747Z" fill="#E6E6E6"/>
<path d="M20.6981 20.3551C20.7307 20.4986 20.819 20.6232 20.9435 20.7017C21.0679 20.7802 21.2184 20.8062 21.362 20.7739L23.0582 20.3898L22.813 19.3071L21.1168 19.6912C20.9733 19.7237 20.8485 19.8119 20.77 19.9364C20.6914 20.0609 20.6656 20.2115 20.6981 20.3551Z" fill="#FFB9B9"/>
<path d="M19.9298 5.11614C18.6555 4.59218 17.3971 4.55426 16.1556 5.04214L15.6376 3.19206H20.3738L19.9298 5.11614Z" fill="#2F2E41"/>
<path d="M22.2239 19.1027L23.1859 20.8788C24.804 20.4275 26.2064 19.0047 27.5521 17.3266L27.182 16.1426L24.888 16.7346L22.2239 19.1027Z" fill="#E6E6E6"/>
<path d="M21.5208 15.4396H21.2248C21.2248 11.2529 20.3628 8.33527 19.5227 8.33527L19.4487 8.03926C20.2021 8.03926 20.6824 9.25355 20.9526 10.2723C21.319 11.6533 21.5208 13.4884 21.5208 15.4396Z" fill="#3F3D56"/>
<path d="M14.7125 14.4035H14.4165C14.4165 10.5692 15.2845 8.18727 16.5626 8.18727L16.4886 8.48328C15.6046 8.48328 14.7125 10.3139 14.7125 14.4035Z" fill="#3F3D56"/>
<path d="M21.3728 16.2536C21.7815 16.2536 22.1128 15.9223 22.1128 15.5136C22.1128 15.1049 21.7815 14.7735 21.3728 14.7735C20.9641 14.7735 20.6328 15.1049 20.6328 15.5136C20.6328 15.9223 20.9641 16.2536 21.3728 16.2536Z" fill="#3F3D56"/>
<path d="M13.5285 16.1796H13.2325C13.2325 15.1187 13.83 14.2555 14.5645 14.2555V14.5515C13.9933 14.5515 13.5285 15.2819 13.5285 16.1796Z" fill="#3F3D56"/>
<path d="M15.8966 16.1796H15.6006C15.6006 15.2819 15.1358 14.5515 14.5645 14.5515V14.2555C15.299 14.2555 15.8966 15.1187 15.8966 16.1796Z" fill="#3F3D56"/>
<path d="M15.7486 16.5496C15.9121 16.5496 16.0446 16.4171 16.0446 16.2536C16.0446 16.0901 15.9121 15.9576 15.7486 15.9576C15.5851 15.9576 15.4526 16.0901 15.4526 16.2536C15.4526 16.4171 15.5851 16.5496 15.7486 16.5496Z" fill="#3F3D56"/>
<path d="M13.3805 16.5496C13.544 16.5496 13.6765 16.4171 13.6765 16.2536C13.6765 16.0901 13.544 15.9576 13.3805 15.9576C13.217 15.9576 13.0845 16.0901 13.0845 16.2536C13.0845 16.4171 13.217 16.5496 13.3805 16.5496Z" fill="#3F3D56"/>
<path d="M9.68034 13.5316L11.5272 13.8614L15.7486 19.8637L13.506 19.336L9.68034 13.5316Z" fill="#58AD70"/>
<path d="M9.35275 13.4581C9.32461 13.4585 9.29709 13.4665 9.27309 13.4812C9.24908 13.4959 9.22947 13.5168 9.2163 13.5416C9.20312 13.5665 9.19687 13.5945 9.1982 13.6226C9.19953 13.6507 9.2084 13.6779 9.22386 13.7015L13.1697 19.6884C13.1918 19.7218 13.2258 19.7456 13.2648 19.7547L15.1007 20.1867C15.1316 20.194 15.1641 20.1917 15.1937 20.1801C15.2233 20.1685 15.2487 20.1482 15.2665 20.1219C15.2843 20.0955 15.2937 20.0644 15.2934 20.0326C15.2931 20.0008 15.2832 19.9698 15.2649 19.9438L10.9325 13.7838C10.9208 13.767 10.9058 13.7527 10.8886 13.7417C10.8713 13.7307 10.852 13.7232 10.8318 13.7196L9.38234 13.4608C9.37258 13.459 9.36267 13.4581 9.35275 13.4581Z" fill="#3F3D56"/>
<path d="M11.8142 17.7387L11.9239 18.8433L13.6544 18.6715C13.8009 18.657 13.9356 18.5848 14.0289 18.471C14.1222 18.3571 14.1665 18.2109 14.1519 18.0644C14.1374 17.9179 14.0653 17.7832 13.9514 17.6899C13.8375 17.5966 13.6913 17.5524 13.5448 17.5669L11.8142 17.7387Z" fill="#FFB9B9"/>
<path d="M10.3094 17.6107C10.3119 17.9874 10.4632 18.3478 10.7303 18.6134C10.9973 18.879 11.3586 19.0283 11.7352 19.0287H12.0198L12.227 17.3023L10.5117 16.6848L10.3094 17.6107Z" fill="#E6E6E6"/>
<path d="M70 0H36.2514V17.7753H70V0Z" fill="#E6E6E6"/>
<path d="M37.2345 16.7923H69.017V0.982971H37.2345V16.7923Z" fill="white"/>
<path d="M50.996 3.27655H39.6919V14.5807H50.996V3.27655Z" fill="#3F3D56"/>
<path d="M48.2928 8.43712C48.4738 8.43712 48.6205 8.29043 48.6205 8.10947C48.6205 7.92851 48.4738 7.78181 48.2928 7.78181C48.1119 7.78181 47.9652 7.92851 47.9652 8.10947C47.9652 8.29043 48.1119 8.43712 48.2928 8.43712Z" fill="#58AD70"/>
<path d="M47.0641 7.29034C47.2451 7.29034 47.3918 7.14364 47.3918 6.96268C47.3918 6.78172 47.2451 6.63503 47.0641 6.63503C46.8832 6.63503 46.7365 6.78172 46.7365 6.96268C46.7365 7.14364 46.8832 7.29034 47.0641 7.29034Z" fill="#58AD70"/>
<path d="M46.9003 8.10947C46.7797 8.1095 46.6615 8.14299 46.5589 8.20621C46.4684 8.07024 46.3622 7.94552 46.2423 7.83467C46.2437 7.81718 46.2449 7.79966 46.2449 7.78182C46.245 7.65324 46.2073 7.52748 46.1364 7.42023C46.0655 7.31297 45.9646 7.22896 45.8462 7.17867C45.7279 7.12838 45.5974 7.11404 45.471 7.13744C45.3445 7.16084 45.2278 7.22094 45.1353 7.31025C44.9598 7.28535 44.7818 7.28379 44.6059 7.30563C44.606 7.30049 44.6067 7.2955 44.6067 7.29034C44.6068 7.18065 44.5794 7.07268 44.527 6.97633C44.4746 6.87998 44.3988 6.79833 44.3067 6.73886C44.2145 6.6794 44.1089 6.64402 43.9995 6.63597C43.8901 6.62792 43.7804 6.64745 43.6805 6.69279C43.5807 6.73812 43.4938 6.8078 43.4278 6.89544C43.3618 6.98308 43.3189 7.08587 43.303 7.1944C43.2871 7.30292 43.2987 7.41371 43.3367 7.5166C43.3747 7.61949 43.4379 7.71119 43.5206 7.7833C43.4109 7.87728 43.3114 7.98253 43.2237 8.09733C43.1428 8.03002 43.0469 7.98318 42.9441 7.96077C42.8413 7.93837 42.7346 7.94105 42.633 7.9686C42.5314 7.99615 42.438 8.04775 42.3606 8.11905C42.2832 8.19034 42.2241 8.27922 42.1883 8.37818C42.1526 8.47714 42.1411 8.58326 42.155 8.68757C42.1689 8.79187 42.2078 8.8913 42.2682 8.97743C42.3287 9.06357 42.409 9.13388 42.5023 9.18241C42.5957 9.23095 42.6994 9.25628 42.8046 9.25627L42.8067 9.25617C42.8056 9.28341 42.8046 9.31068 42.8046 9.33819C42.8046 9.50307 42.8245 9.66734 42.8639 9.82746C42.6691 9.90074 42.4962 10.0223 42.3613 10.1807C42.2264 10.3392 42.1339 10.5293 42.0926 10.7332C42.0514 10.9372 42.0626 11.1483 42.1252 11.3467C42.1878 11.5452 42.2999 11.7244 42.4508 11.8677C42.6017 12.011 42.7865 12.1136 42.988 12.1658C43.1894 12.2181 43.4008 12.2183 43.6023 12.1665C43.8038 12.1147 43.9889 12.0125 44.1401 11.8695C44.2913 11.7266 44.4037 11.5476 44.4668 11.3493C44.9226 11.4369 45.3947 11.3669 45.8055 11.1507C45.8474 11.2494 45.913 11.3364 45.9963 11.4039C46.0797 11.4714 46.1784 11.5174 46.2837 11.5378C46.389 11.5583 46.4978 11.5526 46.6003 11.5212C46.7029 11.4899 46.7963 11.4338 46.8721 11.3579C46.948 11.2821 47.0041 11.1887 47.0354 11.0861C47.0668 10.9835 47.0725 10.8748 47.052 10.7695C47.0316 10.6642 46.9856 10.5655 46.9181 10.4821C46.8506 10.3987 46.7637 10.3332 46.6649 10.2913C46.8068 10.0219 46.8865 9.7242 46.8982 9.42L46.9003 9.4201C47.0741 9.4201 47.2407 9.35106 47.3636 9.22817C47.4865 9.10527 47.5556 8.93859 47.5556 8.76479C47.5556 8.59099 47.4865 8.42431 47.3636 8.30141C47.2407 8.17852 47.0741 8.10948 46.9003 8.10948V8.10947Z" fill="#58AD70"/>
<path d="M46.7365 3.03081H43.4599V3.52229H46.7365V3.03081Z" fill="#E6E6E6"/>
<path d="M65.4128 3.27655H54.1087V14.5807H65.4128V3.27655Z" fill="#3F3D56"/>
<path d="M61.9069 10.9437C61.9883 10.9437 62.0543 10.8777 62.0543 10.7962C62.0543 10.7148 61.9883 10.6488 61.9069 10.6488C61.8255 10.6488 61.7595 10.7148 61.7595 10.7962C61.7595 10.8777 61.8255 10.9437 61.9069 10.9437Z" fill="#58AD70"/>
<path d="M61.354 10.4276C61.4354 10.4276 61.5015 10.3616 61.5015 10.2802C61.5015 10.1988 61.4354 10.1327 61.354 10.1327C61.2725 10.1327 61.2065 10.1988 61.2065 10.2802C61.2065 10.3616 61.2725 10.4276 61.354 10.4276Z" fill="#58AD70"/>
<path d="M61.2803 10.7962C61.2261 10.7962 61.1729 10.8113 61.1267 10.8398C61.086 10.7786 61.0382 10.7225 60.9842 10.6726C60.9849 10.6647 60.9854 10.6568 60.9854 10.6488C60.9855 10.5909 60.9685 10.5343 60.9366 10.4861C60.9047 10.4378 60.8592 10.4 60.806 10.3774C60.7527 10.3547 60.694 10.3483 60.6371 10.3588C60.5802 10.3694 60.5277 10.3964 60.4861 10.4366C60.4071 10.4254 60.327 10.4247 60.2478 10.4345C60.2479 10.4322 60.2482 10.43 60.2482 10.4276C60.2482 10.3783 60.2359 10.3297 60.2123 10.2863C60.1887 10.243 60.1546 10.2062 60.1132 10.1795C60.0717 10.1527 60.0241 10.1368 59.9749 10.1332C59.9257 10.1295 59.8763 10.1383 59.8314 10.1587C59.7864 10.1791 59.7473 10.2105 59.7177 10.2499C59.688 10.2894 59.6687 10.3356 59.6615 10.3845C59.6543 10.4333 59.6595 10.4831 59.6766 10.5294C59.6937 10.5757 59.7222 10.617 59.7594 10.6495C59.71 10.6918 59.6652 10.7391 59.6258 10.7908C59.5894 10.7605 59.5462 10.7394 59.5 10.7293C59.4537 10.7192 59.4057 10.7205 59.36 10.7328C59.3143 10.7452 59.2722 10.7685 59.2374 10.8005C59.2026 10.8326 59.176 10.8726 59.1599 10.9172C59.1438 10.9617 59.1386 11.0094 59.1449 11.0564C59.1511 11.1033 59.1686 11.1481 59.1958 11.1868C59.223 11.2256 59.2591 11.2572 59.3012 11.2791C59.3432 11.3009 59.3898 11.3123 59.4372 11.3123L59.4381 11.3123C59.4376 11.3245 59.4372 11.3368 59.4372 11.3492C59.4372 11.4234 59.4462 11.4973 59.4639 11.5693C59.3762 11.6023 59.2984 11.657 59.2377 11.7283C59.177 11.7996 59.1354 11.8852 59.1168 11.9769C59.0982 12.0687 59.1033 12.1637 59.1314 12.253C59.1596 12.3423 59.2101 12.423 59.278 12.4874C59.3459 12.5519 59.4291 12.5981 59.5197 12.6216C59.6103 12.6451 59.7055 12.6452 59.7962 12.6219C59.8869 12.5986 59.9701 12.5526 60.0382 12.4883C60.1062 12.4239 60.1568 12.3434 60.1852 12.2542C60.3904 12.2936 60.6028 12.2621 60.7877 12.1648C60.8065 12.2092 60.836 12.2483 60.8735 12.2787C60.9111 12.3091 60.9555 12.3298 61.0029 12.339C61.0503 12.3482 61.0992 12.3456 61.1454 12.3315C61.1915 12.3174 61.2335 12.2922 61.2677 12.258C61.3018 12.2239 61.327 12.1819 61.3412 12.1357C61.3553 12.0896 61.3578 12.0406 61.3486 11.9933C61.3394 11.9459 61.3187 11.9015 61.2884 11.8639C61.258 11.8264 61.2189 11.7969 61.1744 11.778C61.2383 11.6568 61.2742 11.5229 61.2794 11.386L61.2803 11.386C61.3585 11.386 61.4335 11.355 61.4889 11.2997C61.5442 11.2444 61.5752 11.1693 61.5752 11.0911C61.5752 11.0129 61.5442 10.9379 61.4889 10.8826C61.4335 10.8273 61.3585 10.7962 61.2803 10.7962V10.7962Z" fill="#58AD70"/>
<path d="M63.0637 8.14566C63.1451 8.14566 63.2111 8.07965 63.2111 7.99821C63.2111 7.91678 63.1451 7.85077 63.0637 7.85077C62.9823 7.85077 62.9163 7.91678 62.9163 7.99821C62.9163 8.07965 62.9823 8.14566 63.0637 8.14566Z" fill="#58AD70"/>
<path d="M63.4105 7.47354C63.492 7.47354 63.558 7.40753 63.558 7.32609C63.558 7.24466 63.492 7.17865 63.4105 7.17865C63.3291 7.17865 63.2631 7.24466 63.2631 7.32609C63.2631 7.40753 63.3291 7.47354 63.4105 7.47354Z" fill="#58AD70"/>
<path d="M62.8939 7.39503C62.8792 7.34281 62.8502 7.2957 62.8103 7.25895C62.8582 7.2032 62.8993 7.14195 62.9326 7.0765C62.9404 7.07498 62.9481 7.07339 62.9559 7.07121C63.0116 7.05557 63.0614 7.02387 63.0992 6.98008C63.1371 6.93628 63.1611 6.88232 63.1685 6.82493C63.1758 6.76754 63.1661 6.70926 63.1406 6.65735C63.115 6.60544 63.0747 6.56221 63.0248 6.53303C63.0141 6.45399 62.9931 6.37669 62.9622 6.30317C62.9644 6.3026 62.9667 6.30227 62.9689 6.30164C63.0164 6.28832 63.0599 6.26328 63.0952 6.22882C63.1305 6.19436 63.1567 6.15158 63.1712 6.10441C63.1857 6.05723 63.1881 6.00717 63.1783 5.9588C63.1684 5.91044 63.1466 5.86532 63.1148 5.82759C63.0829 5.78985 63.0422 5.76071 62.9961 5.74283C62.9501 5.72495 62.9004 5.7189 62.8514 5.72525C62.8025 5.73159 62.7559 5.75012 62.716 5.77913C62.676 5.80815 62.644 5.84672 62.6229 5.89132C62.5688 5.85526 62.5111 5.825 62.4506 5.80102C62.4699 5.75778 62.4785 5.71052 62.4757 5.66325C62.4728 5.61599 62.4587 5.5701 62.4343 5.52947C62.41 5.48884 62.3763 5.45466 62.3359 5.42983C62.2956 5.405 62.2499 5.39025 62.2027 5.38682C62.1555 5.38339 62.1081 5.39139 62.0646 5.41013C62.0211 5.42888 61.9828 5.45782 61.9529 5.49451C61.9229 5.5312 61.9023 5.57456 61.8926 5.62092C61.883 5.66729 61.8847 5.71529 61.8975 5.76087L61.8978 5.76175C61.8859 5.76461 61.8739 5.7675 61.862 5.77086C61.7906 5.79098 61.7219 5.81964 61.6573 5.85621C61.6018 5.78079 61.5281 5.72071 61.443 5.68161C61.3579 5.6425 61.2643 5.62565 61.1709 5.63265C61.0775 5.63964 60.9874 5.67024 60.9091 5.72158C60.8308 5.77292 60.7668 5.84332 60.7232 5.92616C60.6795 6.009 60.6576 6.10158 60.6596 6.1952C60.6615 6.28882 60.6872 6.38041 60.7342 6.46138C60.7813 6.54236 60.8481 6.61005 60.9285 6.65812C61.0088 6.70618 61.1001 6.73304 61.1937 6.73617C61.2113 6.9443 61.2992 7.14024 61.443 7.29179C61.4053 7.322 61.3757 7.361 61.3566 7.40535C61.3375 7.4497 61.3296 7.49806 61.3336 7.54617C61.3376 7.59428 61.3534 7.64068 61.3795 7.68129C61.4056 7.7219 61.4412 7.75549 61.4833 7.77909C61.5255 7.8027 61.5727 7.8156 61.621 7.81668C61.6693 7.81775 61.7171 7.80696 61.7602 7.78525C61.8033 7.76354 61.8404 7.73158 61.8683 7.69217C61.8962 7.65276 61.914 7.60711 61.9201 7.55922C62.0541 7.58784 62.1928 7.58605 62.326 7.55399L62.3262 7.5549C62.3366 7.5922 62.3544 7.62707 62.3783 7.65752C62.4023 7.68797 62.432 7.7134 62.4658 7.73235C62.4996 7.75131 62.5368 7.76342 62.5753 7.768C62.6137 7.77257 62.6527 7.76952 62.69 7.75902C62.7273 7.74852 62.7622 7.73077 62.7926 7.70679C62.823 7.68281 62.8484 7.65307 62.8674 7.61926C62.8863 7.58546 62.8984 7.54826 62.9029 7.50978C62.9075 7.4713 62.9044 7.43231 62.8939 7.39502V7.39503Z" fill="#58AD70"/>
<path d="M57.3529 6.14203C57.4344 6.14203 57.5004 6.07601 57.5004 5.99458C57.5004 5.91315 57.4344 5.84714 57.3529 5.84714C57.2715 5.84714 57.2055 5.91315 57.2055 5.99458C57.2055 6.07601 57.2715 6.14203 57.3529 6.14203Z" fill="#58AD70"/>
<path d="M56.599 6.20242C56.6804 6.20242 56.7465 6.13641 56.7465 6.05497C56.7465 5.97354 56.6804 5.90753 56.599 5.90753C56.5176 5.90753 56.4515 5.97354 56.4515 6.05497C56.4515 6.13641 56.5176 6.20242 56.599 6.20242Z" fill="#58AD70"/>
<path d="M56.9304 6.45737C56.8938 6.49744 56.8691 6.54688 56.859 6.60018C56.7864 6.58897 56.7127 6.58645 56.6395 6.59266C56.6341 6.58689 56.6286 6.58115 56.6227 6.57574C56.58 6.5367 56.5267 6.51109 56.4696 6.50211C56.4124 6.49313 56.3539 6.50118 56.3013 6.52525C56.2487 6.54932 56.2043 6.58834 56.1737 6.63746C56.1431 6.68658 56.1277 6.74361 56.1293 6.80145C56.0678 6.85221 56.0133 6.9109 55.9672 6.97598C55.9655 6.97438 55.964 6.97265 55.9623 6.97108C55.9259 6.93775 55.8817 6.9141 55.8338 6.90229C55.7859 6.89048 55.7357 6.89089 55.688 6.90347C55.6403 6.91606 55.5965 6.94043 55.5606 6.97434C55.5247 7.00825 55.498 7.05063 55.4827 7.09758C55.4675 7.14452 55.4643 7.19455 55.4734 7.24306C55.4825 7.29157 55.5036 7.33702 55.5349 7.37523C55.5661 7.41345 55.6065 7.44322 55.6522 7.4618C55.6979 7.48039 55.7476 7.4872 55.7966 7.48161C55.7946 7.54658 55.7993 7.61159 55.8109 7.67555C55.764 7.68201 55.7193 7.69968 55.6807 7.72705C55.642 7.75442 55.6106 7.79069 55.5889 7.8328C55.5672 7.87491 55.556 7.92162 55.5563 7.96897C55.5565 8.01633 55.5681 8.06293 55.5901 8.10485C55.6121 8.14677 55.6439 8.18276 55.6828 8.20979C55.7217 8.23681 55.7665 8.25408 55.8135 8.26012C55.8604 8.26617 55.9082 8.26081 55.9526 8.24451C55.9971 8.22821 56.037 8.20143 56.0689 8.16646L56.0695 8.16574C56.0782 8.17436 56.087 8.18297 56.0961 8.19131C56.1509 8.24133 56.2115 8.28456 56.2767 8.32006C56.242 8.40702 56.2299 8.50138 56.2416 8.59428C56.2533 8.68719 56.2885 8.77559 56.3437 8.85119C56.399 8.92679 56.4725 8.98712 56.5575 9.02651C56.6424 9.06589 56.736 9.08305 56.8294 9.07636C56.9228 9.06968 57.013 9.03938 57.0914 8.98829C57.1699 8.93721 57.2341 8.86702 57.2781 8.78432C57.322 8.70162 57.3442 8.60912 57.3426 8.5155C57.3409 8.42187 57.3155 8.33019 57.2688 8.24906C57.4362 8.12416 57.5562 7.94602 57.6089 7.74392C57.6545 7.75994 57.7033 7.76454 57.751 7.75731C57.7987 7.75008 57.844 7.73124 57.8827 7.70245C57.9215 7.67366 57.9525 7.63579 57.9732 7.59218C57.9939 7.54856 58.0036 7.50053 58.0014 7.4523C57.9992 7.40408 57.9852 7.35712 57.9607 7.31557C57.9361 7.27402 57.9017 7.23913 57.8605 7.21398C57.8193 7.18883 57.7725 7.17417 57.7243 7.17131C57.6761 7.16844 57.628 7.17745 57.5841 7.19754C57.5376 7.06866 57.4629 6.95184 57.3653 6.85567L57.366 6.85502C57.3921 6.82643 57.4124 6.79296 57.4257 6.75653C57.4389 6.72009 57.4448 6.68141 57.4431 6.64269C57.4413 6.60396 57.432 6.56597 57.4155 6.53086C57.3991 6.49576 57.3759 6.46423 57.3473 6.4381C57.3187 6.41197 57.2852 6.39173 57.2487 6.37856C57.2123 6.36538 57.1736 6.35952 57.1349 6.36131C57.0961 6.3631 57.0582 6.3725 57.0231 6.38899C56.988 6.40547 56.9565 6.42871 56.9304 6.45737Z" fill="#58AD70"/>
<path d="M61.1533 3.03081H57.8768V3.52229H61.1533V3.03081Z" fill="#E6E6E6"/>
<path d="M2.0623 41.796C3.24346 43.3778 5.69533 43.5443 5.69533 43.5443C5.69533 43.5443 6.23215 41.1461 5.05098 39.5643C3.86982 37.9824 1.41795 37.8159 1.41795 37.8159C1.41795 37.8159 0.881131 40.2141 2.0623 41.796Z" fill="#E6E6E6"/>
<path d="M8.07943 42.3906C7.30001 43.4345 5.68208 43.5443 5.68208 43.5443C5.68208 43.5443 5.32785 41.9618 6.10727 40.918C6.88669 39.8742 8.50461 39.7643 8.50461 39.7643C8.50461 39.7643 8.85885 41.3468 8.07943 42.3906Z" fill="#E6E6E6"/>
<path d="M42.5589 47.1542H0V47.3378H42.5589V47.1542Z" fill="#3F3D56"/>
</g>
<defs>
<clipPath id="clip0_2_217">
<rect width="70" height="47.3378" fill="white"/>
</clipPath>
</defs>
</svg>
