<svg width="350" height="244" viewBox="0 0 350 244" fill="none" xmlns="http://www.w3.org/2000/svg">
<g clip-path="url(#clip0_2_117)">
<path d="M292.438 37.4608L265.438 37.7238C264.169 31.4761 259.905 15.083 263.745 10.6117C263.92 8.92875 264.737 7.37819 266.027 6.28275C267.316 5.18732 268.979 4.63142 270.668 4.73078C274.852 -1.81985 281.823 -0.836313 286.534 3.25484C291.275 4.89084 293.063 7.79729 292.438 11.7415C295.949 14.815 296.597 18.5544 295.021 22.811L292.438 37.4608Z" fill="#2F2E41"/>
<path d="M289.839 54.0933L270.359 51.3961L266.463 45.7021C271.83 42.1422 273.729 37.1701 271.258 30.4181L284.744 30.1184C284.112 36.1311 286.1 40.7866 291.637 43.6043L289.839 54.0933Z" fill="#FFB9B9"/>
<path d="M265.754 229.794L265.009 239.977C264.975 240.438 265.04 240.901 265.2 241.335C265.36 241.768 265.611 242.163 265.935 242.492C266.26 242.821 266.651 243.076 267.083 243.241C267.515 243.407 267.977 243.478 268.438 243.45L273.668 243.133C273.91 243.118 274.147 243.05 274.36 242.934C274.573 242.818 274.758 242.656 274.901 242.46C275.045 242.264 275.143 242.039 275.19 241.801C275.237 241.563 275.231 241.317 275.172 241.081L272.269 229.469L265.754 229.794Z" fill="#E6E6E6"/>
<path d="M282.686 229.469L279.783 241.081C279.724 241.317 279.718 241.563 279.765 241.801C279.811 242.039 279.91 242.264 280.053 242.46C280.197 242.656 280.382 242.818 280.595 242.934C280.808 243.05 281.044 243.118 281.287 243.133L286.517 243.45C286.978 243.478 287.44 243.407 287.872 243.241C288.303 243.076 288.695 242.821 289.019 242.492C289.344 242.163 289.595 241.768 289.755 241.335C289.914 240.901 289.98 240.438 289.946 239.977L289.201 229.794L282.686 229.469Z" fill="#E6E6E6"/>
<path d="M289.539 231.208L282.481 230.499L275.454 155.387L272.798 230.257L265.864 230.009L254.176 126.318H298.829L289.539 231.208Z" fill="#58AD70"/>
<path d="M278.75 35.2132C286.198 35.2132 292.236 29.1753 292.236 21.7273C292.236 14.2792 286.198 8.24138 278.75 8.24138C271.302 8.24138 265.265 14.2792 265.265 21.7273C265.265 29.1753 271.302 35.2132 278.75 35.2132Z" fill="#FFB9B9"/>
<path d="M305.423 128.715L250.88 129.315C258.974 98.5 263.816 69.8758 255.375 50.1975L268.861 43.6044C275.363 50.3868 282.605 49.6875 290.438 43.005L303.325 46.3016C301.118 72.1067 302.107 99.7442 305.423 128.715Z" fill="#58AD70"/>
<path d="M235.895 96.9487L269.76 110.435L277.331 112.661C277.669 112.761 278.025 112.791 278.375 112.75C278.726 112.709 279.065 112.597 279.371 112.422C279.677 112.247 279.945 112.011 280.158 111.73C280.371 111.448 280.525 111.126 280.611 110.784C280.761 110.184 280.693 109.549 280.42 108.994C280.148 108.438 279.687 107.997 279.12 107.749L271.258 105.34L247.583 91.5543L252.528 78.5179L242.188 72.9737L235.895 96.9487Z" fill="#FFB9B9"/>
<path d="M236.195 72.3743C242.638 74.8879 247.762 79.1778 251.778 84.9611L264.365 66.6802L255.375 50.1975L236.195 72.3743Z" fill="#58AD70"/>
<path d="M293.949 19.5416C288.476 18.1313 283.094 17.9377 277.863 19.7265C274.531 21.3405 270.529 21.1918 266.079 19.862V6.40709L290.105 7.0478L293.949 19.5416Z" fill="#2F2E41"/>
<path d="M269.647 81.2357C268.589 81.2369 267.573 81.6581 266.824 82.4069C266.076 83.1557 265.655 84.171 265.653 85.2299L267.23 118.233C267.231 119.292 267.652 120.307 268.401 121.056C269.15 121.805 270.165 122.226 271.224 122.227H289.249C290.308 122.226 291.323 121.805 292.072 121.056C292.821 120.307 293.242 119.292 293.243 118.233L294.82 85.2299C294.818 84.171 294.397 83.1557 293.649 82.4069C292.9 81.6581 291.884 81.2369 290.826 81.2357H269.647Z" fill="#3F3D56"/>
<path d="M320.79 94.4552L291.272 106.209L289.046 107.095C288.975 107.123 288.904 107.147 288.829 107.17L281.368 109.366C280.414 109.646 279.093 108.361 278.321 107.474C277.938 107.046 277.722 106.496 277.71 105.923C277.699 105.349 277.893 104.791 278.258 104.348C278.361 104.229 278.474 104.12 278.597 104.021C278.884 103.797 279.223 103.648 279.582 103.588L287.035 102.121C287.303 102.069 287.56 101.973 287.796 101.838L291.272 99.8116L309.32 89.3038C309.822 89.012 310.204 88.5516 310.398 88.0045C310.593 87.4574 310.586 86.8591 310.381 86.3162L306.936 77.2312C306.724 76.6753 306.723 76.0616 306.931 75.5045C307.139 74.9475 307.543 74.4853 308.067 74.2042L313.774 71.1456C314.1 70.9705 314.462 70.8718 314.832 70.8567C315.201 70.8417 315.57 70.9107 315.909 71.0587C316.248 71.2067 316.55 71.4298 316.79 71.7111C317.031 71.9924 317.204 72.3247 317.298 72.6828L322.252 91.5543C322.404 92.133 322.34 92.7474 322.07 93.2818C321.801 93.8161 321.346 94.2335 320.79 94.4552Z" fill="#FFB9B9"/>
<path d="M322.504 69.0777C316.061 71.5913 310.936 75.8812 306.92 81.6646L294.333 63.3837L303.324 46.3016L322.504 69.0777Z" fill="#58AD70"/>
<path d="M287.725 33.7304C281.825 36.1844 275.639 36.0848 269.2 33.7304C271.074 30.5323 268.273 28.0276 266.835 24.7992L290.878 24.0847C289.04 26.8893 286.327 30.2028 287.725 33.7304Z" fill="white"/>
<path d="M290.624 24.6183L290.344 24.3397L290.739 23.9455L293.093 21.1975L293.393 21.4537L291.028 24.2128L290.624 24.6183Z" fill="white"/>
<path d="M265.188 22.9479L264.936 23.2508L267.301 25.2216L267.553 24.9186L265.188 22.9479Z" fill="white"/>
<path d="M291.303 26.9355L287.164 33.4383L287.496 33.65L291.635 27.1472L291.303 26.9355Z" fill="white"/>
<path d="M265.622 26.935L265.29 27.1467L269.428 33.6501L269.761 33.4384L265.622 26.935Z" fill="white"/>
<path d="M292.061 99.2543V106.395L289.575 107.385C289.496 107.416 289.417 107.442 289.333 107.468L281.005 109.919C279.94 110.231 278.466 108.797 277.604 107.807C277.177 107.33 276.935 106.716 276.922 106.076C276.909 105.436 277.126 104.812 277.534 104.318C277.649 104.186 277.775 104.063 277.912 103.953C278.233 103.703 278.611 103.537 279.012 103.469L287.332 101.832C287.63 101.774 287.917 101.667 288.181 101.516L292.061 99.2543Z" fill="white"/>
<path d="M295.663 73.7848H294.239C294.239 53.6398 290.091 39.601 286.049 39.601L285.693 38.1767C289.318 38.1767 291.629 44.0195 292.93 48.9212C294.693 55.5662 295.663 64.3963 295.663 73.7848Z" fill="#3F3D56"/>
<path d="M262.904 68.7997H261.479C261.479 50.35 265.656 38.8889 271.806 38.8889L271.45 40.3132C267.196 40.3132 262.904 49.1215 262.904 68.7997Z" fill="#3F3D56"/>
<path d="M294.951 77.7017C296.918 77.7017 298.512 76.1074 298.512 74.1409C298.512 72.1743 296.918 70.58 294.951 70.58C292.984 70.58 291.39 72.1743 291.39 74.1409C291.39 76.1074 292.984 77.7017 294.951 77.7017Z" fill="#3F3D56"/>
<path d="M257.207 77.3456H255.783C255.783 72.2407 258.658 68.0875 262.192 68.0875V69.5118C259.443 69.5118 257.207 73.026 257.207 77.3456Z" fill="#3F3D56"/>
<path d="M268.601 77.3456H267.177C267.177 73.026 264.941 69.5118 262.192 69.5118V68.0875C265.726 68.0875 268.601 72.2407 268.601 77.3456Z" fill="#3F3D56"/>
<path d="M267.889 79.126C268.675 79.126 269.313 78.4883 269.313 77.7017C269.313 76.915 268.675 76.2773 267.889 76.2773C267.102 76.2773 266.464 76.915 266.464 77.7017C266.464 78.4883 267.102 79.126 267.889 79.126Z" fill="#3F3D56"/>
<path d="M256.494 79.126C257.281 79.126 257.919 78.4883 257.919 77.7017C257.919 76.915 257.281 76.2773 256.494 76.2773C255.708 76.2773 255.07 76.915 255.07 77.7017C255.07 78.4883 255.708 79.126 256.494 79.126Z" fill="#3F3D56"/>
<path d="M84.8476 29.8358L59.8329 34.0719C59.2149 34.1773 58.5798 34.0498 58.0505 33.714C57.5212 33.3781 57.1352 32.8579 56.9674 32.2539C55.1601 25.731 51.3816 17.2216 55.0501 12.9499C55.237 11.1529 56.1098 9.49713 57.4868 8.32737C58.8638 7.15763 60.6389 6.56401 62.4425 6.6701C66.9112 -0.324932 74.3544 0.725328 79.3851 5.09404C84.4481 6.84102 86.3569 9.94465 85.6894 14.1564C87.8766 16.0709 89.0233 18.2274 89.2651 20.5943C89.3797 21.9115 89.2122 23.238 88.7735 24.4852C88.3349 25.7324 87.6353 26.8718 86.7214 27.8272L84.8476 29.8358Z" fill="#2F2E41"/>
<path d="M80.9585 49.5293L61.5665 48.3886C63.4669 44.0266 64.2261 39.8263 63.4677 35.8407H77.9166C77.8839 38.9008 79.4067 44.1942 80.9585 49.5293Z" fill="#9F616A"/>
<path d="M57.6158 228.718L56.8204 239.592C56.7844 240.084 56.8541 240.578 57.0247 241.041C57.1954 241.505 57.463 241.926 57.8098 242.277C58.1566 242.628 58.5744 242.901 59.0353 243.077C59.4962 243.254 59.9895 243.33 60.4821 243.3L66.0672 242.961C66.326 242.946 66.5782 242.873 66.8058 242.749C67.0334 242.625 67.2308 242.452 67.3841 242.243C67.5374 242.034 67.6427 241.794 67.6927 241.539C67.7426 241.285 67.7359 241.023 67.673 240.771L64.5728 228.37L57.6158 228.718Z" fill="#E6E6E6"/>
<path d="M75.6972 228.37L72.5971 240.771C72.5342 241.022 72.5275 241.285 72.5774 241.539C72.6273 241.794 72.7327 242.034 72.886 242.243C73.0393 242.452 73.2367 242.625 73.4643 242.749C73.6919 242.873 73.944 242.946 74.2028 242.961L79.7879 243.3C80.2805 243.33 80.7738 243.254 81.2346 243.077C81.6955 242.901 82.1134 242.628 82.4601 242.277C82.8069 241.926 83.0746 241.505 83.2452 241.041C83.4159 240.578 83.4855 240.084 83.4495 239.592L82.6541 228.718L75.6972 228.37Z" fill="#E6E6E6"/>
<path d="M83.0146 230.228L75.4778 229.471L67.9741 149.263L65.1382 229.213L57.7334 228.948L45.2529 118.221H92.9352L83.0146 230.228Z" fill="#58AD70"/>
<path d="M71.0733 40.4566C79.0266 40.4566 85.474 34.0092 85.474 26.0558C85.474 18.1025 79.0266 11.655 71.0733 11.655C63.12 11.655 56.6726 18.1025 56.6726 26.0558C56.6726 34.0092 63.12 40.4566 71.0733 40.4566Z" fill="#9F616A"/>
<path d="M87.3035 19.1764C81.4587 18.1585 75.7123 18.0187 70.1262 19.3098C66.5678 20.4747 62.2945 20.3674 57.5422 19.4076V9.69629L83.1985 10.1587L87.3035 19.1764Z" fill="#2F2E41"/>
<path d="M80.6571 37.6106C74.3572 40.2311 67.7515 40.1247 60.8757 37.6106C62.8764 34.1956 59.8857 31.5209 58.3504 28.0735L84.0242 27.3105C82.0608 30.3054 79.1638 33.8437 80.6571 37.6106Z" fill="white"/>
<path d="M56.5826 26.1068L56.3301 26.4098L58.8553 28.5141L59.1078 28.2111L56.5826 26.1068Z" fill="white"/>
<path d="M84.4895 30.3616L80.069 37.3056L80.4016 37.5173L84.822 30.5733L84.4895 30.3616Z" fill="white"/>
<path d="M57.043 30.3613L56.7104 30.5729L61.1297 37.5176L61.4622 37.3059L57.043 30.3613Z" fill="white"/>
<path d="M43.6953 91.7357L32.6685 84.8914L42.0724 57.349C43.1213 54.5069 45.1302 52.1207 47.7519 50.6029L50.9198 48.7688L51.1953 76.554L43.6953 91.7357Z" fill="#58AD70"/>
<path d="M91.3584 105.112L89.7269 91.139C89.6398 83.7634 90.8946 76.6326 93.8866 70.0621L95.4075 49.5293L78.6771 42.685C78.6258 43.0259 78.5822 43.3667 78.5332 43.7075L70.6921 47.6281L63.045 45.8901L63.0874 43.4455L47.8779 50.2898C52.9077 73.6737 50.1643 97.9568 41.5149 126.639L61.552 132.118L61.7186 122.497L79.576 121.221C79.7599 124.343 79.9077 127.409 79.9935 130.407C90.0699 134.117 90.416 134.055 99.5969 128.744C95.9407 121.057 93.0458 113.058 91.3584 105.112Z" fill="#58AD70"/>
<path d="M117.081 88.3134L106.814 84.8914L90.393 65.7742L95.4073 49.5295L118.221 81.4695L117.081 88.3134Z" fill="#58AD70"/>
<path d="M84.9062 103.114C85.0742 103.851 85.5276 104.491 86.1671 104.895C86.8066 105.298 87.5799 105.431 88.3175 105.265L97.0324 103.292L95.7729 97.7291L87.0578 99.7023C86.3202 99.8694 85.6791 100.323 85.2756 100.962C84.8721 101.602 84.7392 102.376 84.9062 103.114V103.114Z" fill="#E6E6E6"/>
<path d="M92.7458 96.6787L97.6889 105.804C106.003 103.485 113.209 96.175 120.123 87.553L118.222 81.4693L106.434 84.5111L92.7458 96.6787Z" fill="#58AD70"/>
<path d="M28.2956 68.0535L37.785 69.748L59.4751 100.589L47.9523 97.8773L28.2956 68.0535Z" fill="#E6E6E6"/>
<path d="M26.6125 67.676C26.4679 67.6782 26.3266 67.7192 26.2032 67.7947C26.0799 67.8702 25.9791 67.9775 25.9114 68.1053C25.8437 68.2331 25.8116 68.3767 25.8185 68.5212C25.8253 68.6656 25.8708 68.8056 25.9503 68.9264L46.2248 99.688C46.3379 99.86 46.5127 99.982 46.7131 100.029L56.1462 102.248C56.3053 102.286 56.4719 102.274 56.6241 102.215C56.7763 102.155 56.9068 102.051 56.9983 101.915C57.0898 101.78 57.138 101.62 57.1365 101.457C57.135 101.293 57.0839 101.134 56.9899 101.001L34.7297 69.3494C34.6693 69.2631 34.5925 69.1896 34.5038 69.1331C34.415 69.0766 34.3159 69.0381 34.2122 69.0198L26.7646 67.6897C26.7144 67.6807 26.6635 67.6761 26.6125 67.676Z" fill="#3F3D56"/>
<path d="M39.2598 89.6702L39.8233 95.3459L48.7151 94.4633C49.4677 94.3886 50.1598 94.0179 50.6392 93.4329C51.1186 92.8479 51.346 92.0964 51.2713 91.3438C51.1966 90.5911 50.8259 89.899 50.2409 89.4196C49.6559 88.9402 48.9044 88.7129 48.1518 88.7876L39.2598 89.6702Z" fill="#E6E6E6"/>
<path d="M31.5279 89.0128C31.5408 90.9481 32.3181 92.7998 33.6903 94.1645C35.0626 95.5293 36.9186 96.2963 38.8539 96.2985H40.316L41.3804 87.4281L32.5672 84.2553L31.5279 89.0128Z" fill="#58AD70"/>
<path d="M83.3216 28.2917L83.043 28.0131L83.4639 27.5921L85.9789 24.657L86.2781 24.9131L83.7528 27.8594L83.3216 28.2917Z" fill="white"/>
<path d="M350 242.836H0V243.624H350V242.836Z" fill="#3F3D56"/>
<path d="M133.615 242.441H216.385V142.046C216.385 136.73 211.149 132.405 204.713 132.405H145.287C138.851 132.405 133.615 136.73 133.615 142.046V242.441Z" fill="#E6E6E6"/>
<path d="M139.921 238.29H210.079V153.193C210.079 148.687 205.641 145.021 200.185 145.021H149.815C144.359 145.021 139.921 148.687 139.921 153.193V238.29Z" fill="white"/>
<path d="M132.99 124.592C130.944 124.592 129.279 125.967 129.279 127.656V136.502C129.279 138.192 130.944 139.567 132.99 139.567H217.011C219.056 139.567 220.721 138.192 220.721 136.502V127.656C220.721 125.967 219.056 124.592 217.011 124.592H132.99Z" fill="#3F3D56"/>
<path d="M150.24 227.379C149.28 227.382 148.359 227.764 147.68 228.443C147.001 229.123 146.618 230.043 146.615 231.003C146.618 231.963 147.001 232.884 147.68 233.563C148.359 234.242 149.28 234.625 150.24 234.627H157.025V227.379H150.24Z" fill="#3F3D56"/>
<path d="M163.252 227.379H156.653V234.627H163.252C164.213 234.625 165.133 234.242 165.812 233.563C166.492 232.884 166.874 231.963 166.877 231.003C166.874 230.043 166.492 229.123 165.812 228.443C165.133 227.764 164.213 227.382 163.252 227.379Z" fill="#58AD70"/>
<path opacity="0.2" d="M165.618 228.266C166.189 228.921 166.505 229.761 166.505 230.631C166.503 231.592 166.12 232.512 165.441 233.191C164.761 233.87 163.841 234.253 162.881 234.256H156.653V234.627H163.252C164.213 234.625 165.133 234.242 165.812 233.563C166.492 232.884 166.874 231.963 166.877 231.003C166.876 230.483 166.763 229.969 166.546 229.497C166.329 229.025 166.012 228.605 165.618 228.266Z" fill="black"/>
<path d="M180.858 172.779C180.197 172.082 179.287 171.674 178.327 171.646C177.367 171.618 176.434 171.971 175.734 172.627C175.037 173.288 174.629 174.198 174.601 175.158C174.573 176.118 174.925 177.05 175.582 177.751L180.236 182.689L185.512 177.716L180.858 172.779Z" fill="#3F3D56"/>
<path d="M189.783 182.247L185.256 177.445L179.981 182.418L184.508 187.22C185.169 187.917 186.078 188.324 187.038 188.352C187.999 188.381 188.931 188.028 189.632 187.371C190.329 186.71 190.736 185.8 190.764 184.84C190.793 183.88 190.44 182.948 189.783 182.247Z" fill="#58AD70"/>
<path opacity="0.2" d="M190.759 184.577C190.675 185.443 190.28 186.248 189.647 186.846C188.946 187.502 188.014 187.855 187.054 187.827C186.094 187.798 185.184 187.391 184.523 186.694L180.252 182.163L179.981 182.418L184.508 187.22C185.169 187.917 186.078 188.324 187.038 188.352C187.999 188.381 188.931 188.028 189.632 187.371C190.009 187.014 190.306 186.579 190.5 186.097C190.695 185.615 190.783 185.097 190.759 184.577Z" fill="black"/>
<path d="M161.545 184.209C160.884 183.512 159.974 183.105 159.014 183.076C158.054 183.048 157.121 183.401 156.421 184.058C155.724 184.718 155.316 185.628 155.288 186.588C155.26 187.548 155.613 188.481 156.269 189.182L160.923 194.119L166.198 189.146L161.545 184.209Z" fill="#3F3D56"/>
<path d="M170.47 193.677L165.943 188.875L160.668 193.848L165.195 198.65C165.855 199.347 166.765 199.754 167.725 199.783C168.685 199.811 169.618 199.458 170.319 198.801C171.016 198.141 171.423 197.231 171.451 196.271C171.479 195.31 171.127 194.378 170.47 193.677Z" fill="#58AD70"/>
<path opacity="0.2" d="M171.446 196.007C171.361 196.873 170.966 197.679 170.334 198.276C169.633 198.933 168.701 199.285 167.741 199.257C166.781 199.229 165.871 198.822 165.21 198.125L160.939 193.593L160.668 193.848L165.195 198.65C165.855 199.347 166.765 199.754 167.725 199.783C168.685 199.811 169.618 199.458 170.319 198.801C170.696 198.444 170.993 198.01 171.187 197.527C171.382 197.045 171.47 196.527 171.446 196.007Z" fill="black"/>
<path d="M180.858 194.851C180.197 194.154 179.287 193.747 178.327 193.718C177.367 193.69 176.434 194.043 175.734 194.699C175.037 195.36 174.629 196.27 174.601 197.23C174.573 198.19 174.925 199.123 175.582 199.823L180.236 204.761L185.512 199.788L180.858 194.851Z" fill="#3F3D56"/>
<path d="M189.783 204.319L185.256 199.517L179.981 204.49L184.508 209.292C185.169 209.989 186.078 210.396 187.038 210.425C187.999 210.453 188.931 210.1 189.632 209.443C190.329 208.782 190.736 207.873 190.764 206.913C190.793 205.952 190.44 205.02 189.783 204.319Z" fill="#58AD70"/>
<path opacity="0.2" d="M190.759 206.649C190.675 207.515 190.28 208.321 189.647 208.918C188.946 209.575 188.014 209.927 187.054 209.899C186.094 209.871 185.184 209.463 184.523 208.766L180.252 204.235L179.981 204.49L184.508 209.292C185.169 209.989 186.078 210.396 187.038 210.425C187.999 210.453 188.931 210.1 189.632 209.443C190.009 209.086 190.306 208.652 190.5 208.169C190.695 207.687 190.783 207.169 190.759 206.649Z" fill="black"/>
<path d="M192.64 217.501C193.328 216.832 193.725 215.917 193.741 214.956C193.758 213.996 193.394 213.068 192.729 212.375C192.059 211.687 191.145 211.29 190.184 211.274C189.224 211.257 188.296 211.621 187.603 212.286L182.723 217L187.759 222.214L192.64 217.501Z" fill="#3F3D56"/>
<path d="M183.28 226.541L188.027 221.956L182.99 216.742L178.244 221.326C177.555 221.996 177.159 222.91 177.142 223.871C177.125 224.831 177.489 225.759 178.155 226.452C178.824 227.14 179.739 227.536 180.699 227.553C181.659 227.57 182.587 227.206 183.28 226.541Z" fill="#58AD70"/>
<path opacity="0.2" d="M180.962 227.546C180.096 227.471 179.285 227.086 178.68 226.461C178.015 225.768 177.651 224.84 177.668 223.88C177.684 222.92 178.08 222.005 178.769 221.336L183.249 217.009L182.99 216.742L178.244 221.326C177.555 221.996 177.159 222.91 177.142 223.871C177.125 224.831 177.489 225.759 178.155 226.452C178.517 226.825 178.955 227.116 179.439 227.305C179.924 227.494 180.443 227.576 180.962 227.546Z" fill="black"/>
<path d="M166.626 206.071C167.315 205.401 167.711 204.487 167.728 203.526C167.744 202.566 167.38 201.638 166.715 200.945C166.046 200.256 165.131 199.86 164.171 199.844C163.21 199.827 162.282 200.191 161.59 200.856L156.709 205.57L161.746 210.784L166.626 206.071Z" fill="#3F3D56"/>
<path d="M157.267 215.111L162.013 210.526L156.977 205.312L152.23 209.896C151.541 210.565 151.145 211.48 151.129 212.441C151.112 213.401 151.476 214.329 152.141 215.022C152.811 215.71 153.725 216.106 154.686 216.123C155.646 216.14 156.574 215.776 157.267 215.111Z" fill="#58AD70"/>
<path opacity="0.2" d="M154.949 216.116C154.082 216.041 153.272 215.656 152.667 215.031C152.002 214.338 151.638 213.41 151.654 212.45C151.671 211.49 152.067 210.575 152.756 209.906L157.235 205.579L156.977 205.312L152.23 209.896C151.541 210.566 151.145 211.48 151.129 212.441C151.112 213.401 151.476 214.329 152.141 215.022C152.503 215.395 152.941 215.686 153.426 215.875C153.91 216.064 154.43 216.146 154.949 216.116Z" fill="black"/>
<path d="M203.676 192.276C204.364 191.606 204.761 190.692 204.777 189.731C204.794 188.771 204.43 187.843 203.765 187.15C203.095 186.461 202.181 186.065 201.22 186.049C200.26 186.032 199.332 186.396 198.639 187.061L193.759 191.775L198.795 196.989L203.676 192.276Z" fill="#3F3D56"/>
<path d="M194.316 201.316L199.063 196.731L194.026 191.517L189.28 196.101C188.591 196.77 188.195 197.685 188.178 198.646C188.161 199.606 188.525 200.534 189.191 201.227C189.86 201.916 190.775 202.312 191.735 202.328C192.695 202.345 193.623 201.981 194.316 201.316Z" fill="#58AD70"/>
<path opacity="0.2" d="M191.998 202.32C191.132 202.246 190.321 201.861 189.716 201.236C189.051 200.543 188.687 199.615 188.704 198.655C188.72 197.694 189.117 196.78 189.805 196.11L194.285 191.784L194.026 191.517L189.28 196.101C188.591 196.77 188.195 197.685 188.178 198.646C188.161 199.606 188.525 200.534 189.191 201.227C189.553 201.6 189.991 201.891 190.475 202.08C190.96 202.268 191.479 202.351 191.998 202.32Z" fill="black"/>
<path d="M195.441 220.865C194.78 220.168 193.87 219.761 192.91 219.733C191.95 219.704 191.018 220.057 190.317 220.714C189.62 221.375 189.213 222.284 189.184 223.245C189.156 224.205 189.509 225.137 190.166 225.838L194.82 230.775L200.095 225.802L195.441 220.865Z" fill="#3F3D56"/>
<path d="M204.366 230.333L199.84 225.531L194.565 230.504L199.091 235.305C199.752 236.002 200.662 236.409 201.622 236.438C202.582 236.466 203.514 236.113 204.215 235.456C204.912 234.796 205.319 233.886 205.348 232.926C205.376 231.966 205.023 231.034 204.366 230.333Z" fill="#58AD70"/>
<path opacity="0.2" d="M205.343 232.663C205.258 233.528 204.863 234.334 204.231 234.931C203.53 235.588 202.597 235.94 201.637 235.912C200.677 235.884 199.767 235.477 199.107 234.78L194.835 230.249L194.565 230.504L199.091 235.305C199.752 236.002 200.662 236.409 201.622 236.438C202.582 236.466 203.514 236.113 204.215 235.456C204.593 235.099 204.889 234.665 205.084 234.183C205.278 233.7 205.367 233.182 205.343 232.663Z" fill="black"/>
<path d="M169.821 220.47C169.161 219.773 168.251 219.366 167.291 219.338C166.331 219.31 165.398 219.662 164.698 220.319C164.001 220.98 163.593 221.89 163.565 222.85C163.537 223.81 163.889 224.742 164.546 225.443L169.2 230.38L174.475 225.408L169.821 220.47Z" fill="#3F3D56"/>
<path d="M178.747 229.939L174.22 225.137L168.945 230.11L173.472 234.912C174.133 235.609 175.042 236.016 176.002 236.044C176.963 236.073 177.895 235.72 178.596 235.063C179.293 234.402 179.7 233.492 179.728 232.532C179.756 231.572 179.404 230.64 178.747 229.939Z" fill="#58AD70"/>
<path opacity="0.2" d="M179.723 232.269C179.639 233.134 179.244 233.94 178.611 234.537C177.91 235.194 176.978 235.547 176.018 235.519C175.058 235.49 174.148 235.083 173.487 234.386L169.216 229.854L168.945 230.109L173.472 234.912C174.133 235.609 175.042 236.016 176.002 236.044C176.963 236.073 177.895 235.72 178.596 235.063C178.973 234.706 179.27 234.271 179.464 233.789C179.659 233.307 179.747 232.788 179.723 232.269Z" fill="black"/>
<path d="M177.033 207.466C177.033 208.671 176.617 209.839 175.855 210.773C175.093 211.707 174.032 212.348 172.851 212.589C172.161 212.729 171.45 212.729 170.76 212.589C169.579 212.348 168.518 211.706 167.756 210.773C166.994 209.839 166.578 208.671 166.578 207.466C166.578 206.261 166.994 205.093 167.756 204.159C168.518 203.226 169.579 202.584 170.76 202.343C171.45 202.204 172.161 202.204 172.851 202.343C174.032 202.584 175.093 203.226 175.855 204.159C176.617 205.093 177.033 206.261 177.033 207.466Z" fill="#58AD70"/>
<path opacity="0.2" d="M172.851 202.343V212.589C172.161 212.729 171.45 212.729 170.76 212.589V202.343C171.45 202.204 172.161 202.204 172.851 202.343Z" fill="black"/>
<path d="M179.398 186.576C179.398 187.781 178.982 188.95 178.22 189.883C177.458 190.817 176.396 191.458 175.216 191.699C174.526 191.839 173.815 191.839 173.125 191.699C171.944 191.458 170.883 190.816 170.121 189.883C169.359 188.949 168.943 187.781 168.943 186.576C168.943 185.371 169.359 184.203 170.121 183.27C170.883 182.336 171.944 181.694 173.125 181.453C173.815 181.314 174.526 181.314 175.216 181.453C176.396 181.694 177.458 182.336 178.22 183.269C178.982 184.203 179.398 185.371 179.398 186.576Z" fill="#58AD70"/>
<path opacity="0.2" d="M175.216 181.453V191.699C174.526 191.839 173.815 191.839 173.125 191.699V181.453C173.815 181.314 174.526 181.314 175.216 181.453Z" fill="black"/>
<path d="M179.398 216.532C179.398 217.737 178.982 218.905 178.22 219.839C177.458 220.772 176.396 221.414 175.216 221.655C174.526 221.794 173.815 221.794 173.125 221.655C171.944 221.414 170.883 220.772 170.121 219.838C169.359 218.905 168.943 217.737 168.943 216.532C168.943 215.326 169.359 214.158 170.121 213.225C170.883 212.291 171.944 211.65 173.125 211.408C173.815 211.269 174.526 211.269 175.216 211.408C176.396 211.649 177.458 212.291 178.22 213.225C178.982 214.158 179.398 215.326 179.398 216.532Z" fill="#58AD70"/>
<path opacity="0.2" d="M175.216 211.408V221.655C174.526 221.794 173.815 221.794 173.125 221.655V211.408C173.815 211.269 174.526 211.269 175.216 211.408Z" fill="black"/>
<path d="M192.405 231.115C192.405 232.32 191.989 233.488 191.227 234.422C190.464 235.355 189.403 235.997 188.222 236.238C187.532 236.378 186.821 236.378 186.131 236.238C184.951 235.997 183.89 235.355 183.128 234.422C182.366 233.488 181.949 232.32 181.949 231.115C181.949 229.91 182.366 228.741 183.128 227.808C183.89 226.874 184.951 226.233 186.131 225.991C186.822 225.852 187.532 225.852 188.222 225.991C189.403 226.232 190.464 226.874 191.227 227.808C191.989 228.741 192.405 229.91 192.405 231.115Z" fill="#58AD70"/>
<path opacity="0.2" d="M188.222 225.991V236.238C187.532 236.378 186.822 236.378 186.131 236.238V225.991C186.822 225.852 187.532 225.852 188.222 225.991Z" fill="black"/>
<path d="M203.895 204.283C204.762 205.119 205.315 206.229 205.458 207.426C205.601 208.622 205.327 209.832 204.681 210.849C204.302 211.443 203.809 211.955 203.23 212.355C202.237 213.037 201.038 213.356 199.837 213.257C198.636 213.158 197.507 212.647 196.639 211.811C195.771 210.974 195.219 209.864 195.076 208.667C194.933 207.471 195.207 206.262 195.853 205.244C196.231 204.651 196.724 204.139 197.304 203.739C198.297 203.056 199.495 202.737 200.696 202.836C201.897 202.935 203.027 203.446 203.895 204.283Z" fill="#58AD70"/>
<path opacity="0.2" d="M197.304 203.739L204.681 210.849C204.302 211.443 203.809 211.955 203.23 212.355L195.853 205.244C196.231 204.651 196.724 204.139 197.304 203.739Z" fill="black"/>
<path d="M205.471 215.713C206.339 216.549 206.891 217.659 207.035 218.856C207.178 220.053 206.903 221.262 206.257 222.279C205.879 222.873 205.386 223.385 204.806 223.785C203.813 224.467 202.615 224.786 201.414 224.687C200.213 224.588 199.083 224.077 198.215 223.241C197.348 222.404 196.796 221.294 196.652 220.098C196.509 218.901 196.783 217.692 197.429 216.674C197.808 216.081 198.301 215.569 198.88 215.169C199.873 214.486 201.072 214.167 202.273 214.266C203.474 214.366 204.604 214.877 205.471 215.713Z" fill="#58AD70"/>
<path opacity="0.2" d="M198.88 215.169L206.257 222.279C205.879 222.873 205.386 223.385 204.806 223.785L197.429 216.675C197.808 216.081 198.301 215.569 198.88 215.169Z" fill="black"/>
<path d="M158.568 218.472C159.436 219.309 159.988 220.419 160.131 221.616C160.275 222.812 160 224.022 159.354 225.039C158.976 225.633 158.482 226.145 157.903 226.545C156.91 227.227 155.712 227.546 154.511 227.447C153.31 227.348 152.18 226.837 151.312 226.001C150.445 225.164 149.892 224.054 149.749 222.857C149.606 221.661 149.88 220.451 150.526 219.434C150.904 218.84 151.398 218.328 151.977 217.928C152.97 217.245 154.168 216.926 155.369 217.026C156.571 217.125 157.7 217.636 158.568 218.472Z" fill="#58AD70"/>
<path opacity="0.2" d="M151.977 217.928L159.354 225.039C158.976 225.632 158.482 226.144 157.903 226.544L150.526 219.434C150.904 218.84 151.398 218.328 151.977 217.928Z" fill="black"/>
<path opacity="0.2" d="M141.695 124.592H139.724V139.175H141.695V124.592Z" fill="black"/>
<path opacity="0.2" d="M153.125 124.592H151.154V139.175H153.125V124.592Z" fill="black"/>
<path opacity="0.2" d="M164.555 124.592H162.584V139.175H164.555V124.592Z" fill="black"/>
<path opacity="0.2" d="M175.985 124.592H174.015V139.175H175.985V124.592Z" fill="black"/>
<path opacity="0.2" d="M187.416 124.592H185.445V139.175H187.416V124.592Z" fill="black"/>
<path opacity="0.2" d="M198.846 124.592H196.875V139.175H198.846V124.592Z" fill="black"/>
<path opacity="0.2" d="M210.276 124.592H208.305V139.175H210.276V124.592Z" fill="black"/>
</g>
<defs>
<clipPath id="clip0_2_117">
<rect width="350" height="243.624" fill="white"/>
</clipPath>
</defs>
</svg>
