<?xml version="1.0" standalone="no"?>
<!DOCTYPE svg PUBLIC "-//W3C//DTD SVG 20010904//EN"
 "http://www.w3.org/TR/2001/REC-SVG-20010904/DTD/svg10.dtd">
<svg version="1.0" xmlns="http://www.w3.org/2000/svg"
 width="512.000000pt" height="512.000000pt" viewBox="0 0 512.000000 512.000000"
 preserveAspectRatio="xMidYMid meet">

<g transform="translate(0.000000,512.000000) scale(0.100000,-0.100000)"
fill="#000000" stroke="none">
<path d="M3229 3829 c-15 -5 -377 -310 -805 -677 -846 -725 -824 -703 -824
-806 0 -102 -22 -81 793 -778 413 -354 769 -658 791 -675 52 -42 126 -59 182
-44 94 25 153 97 162 198 9 106 29 86 -702 710 -364 311 -667 571 -674 578
-10 9 120 126 653 581 578 494 669 576 690 618 55 109 13 230 -97 287 -40 21
-124 24 -169 8z"/>
</g>
</svg>
