<svg width="21" height="40" viewBox="0 0 21 40" fill="none" xmlns="http://www.w3.org/2000/svg">
<path d="M17.1815 0.133227C17.0233 0.198657 13.2053 4.18987 8.69123 8.99241C-0.231422 18.4797 0.000608787 18.1918 0.000608787 19.5397C0.000608787 20.8744 -0.231422 20.5996 8.36428 29.7205C12.7201 34.353 16.4748 38.3311 16.7068 38.5535C17.2553 39.1031 18.0358 39.3256 18.6264 39.1293C19.6178 38.8022 20.24 37.86 20.335 36.5383C20.4299 35.1512 20.6408 35.4129 12.9311 27.2473C9.09201 23.1776 5.89631 19.7752 5.82248 19.6836C5.71701 19.5658 7.0881 18.0348 12.7096 12.0807C18.8057 5.61623 19.7654 4.54319 19.9869 3.99358C20.567 2.56721 20.124 0.983813 18.9639 0.237915C18.542 -0.0368901 17.6561 -0.0761479 17.1815 0.133227Z" fill="white"/>
</svg>
