<svg width="30" height="27" viewBox="0 0 30 27" fill="none" xmlns="http://www.w3.org/2000/svg">
<g clip-path="url(#clip0_8_39)">
<path d="M14.6026 7.72186L5 15.6307V24.1667C5 24.3877 5.08779 24.5996 5.24407 24.7559C5.40035 24.9122 5.61232 25 5.83333 25L11.6698 24.9849C11.8901 24.9838 12.101 24.8955 12.2563 24.7393C12.4117 24.5832 12.4989 24.3718 12.4989 24.1516V19.1667C12.4989 18.9456 12.5867 18.7337 12.743 18.5774C12.8993 18.4211 13.1113 18.3333 13.3323 18.3333H16.6656C16.8866 18.3333 17.0986 18.4211 17.2549 18.5774C17.4111 18.7337 17.4989 18.9456 17.4989 19.1667V24.1479C17.4986 24.2576 17.5199 24.3662 17.5616 24.4676C17.6033 24.569 17.6647 24.6612 17.7421 24.7388C17.8195 24.8165 17.9115 24.8781 18.0128 24.9202C18.114 24.9622 18.2226 24.9838 18.3323 24.9838L24.1666 25C24.3877 25 24.5996 24.9122 24.7559 24.7559C24.9122 24.5996 25 24.3877 25 24.1667V15.625L15.3995 7.72186C15.2866 7.63088 15.146 7.58127 15.001 7.58127C14.8561 7.58127 14.7155 7.63088 14.6026 7.72186ZM29.7708 13.0974L25.4166 9.50832V2.29425C25.4166 2.12849 25.3508 1.96952 25.2336 1.85231C25.1164 1.7351 24.9574 1.66925 24.7916 1.66925H21.875C21.7092 1.66925 21.5502 1.7351 21.433 1.85231C21.3158 1.96952 21.25 2.12849 21.25 2.29425V6.07602L16.587 2.23956C16.1395 1.87132 15.5779 1.66999 14.9984 1.66999C14.4189 1.66999 13.8574 1.87132 13.4099 2.23956L0.226044 13.0974C0.162756 13.1497 0.110396 13.214 0.071954 13.2865C0.0335123 13.3591 0.00974302 13.4385 0.00200417 13.5202C-0.00573468 13.602 0.0027086 13.6844 0.0268516 13.7629C0.0509945 13.8414 0.090364 13.9143 0.142711 13.9776L1.47083 15.5922C1.52304 15.6557 1.58725 15.7082 1.65979 15.7468C1.73233 15.7855 1.81178 15.8094 1.89359 15.8173C1.9754 15.8252 2.05796 15.8169 2.13654 15.7928C2.21513 15.7687 2.28819 15.7294 2.35156 15.6771L14.6026 5.58644C14.7155 5.49546 14.8561 5.44585 15.001 5.44585C15.146 5.44585 15.2866 5.49546 15.3995 5.58644L27.651 15.6771C27.7143 15.7294 27.7872 15.7688 27.8657 15.7929C27.9442 15.8171 28.0266 15.8255 28.1084 15.8178C28.1901 15.81 28.2695 15.7863 28.3421 15.7478C28.4146 15.7094 28.4789 15.657 28.5312 15.5937L29.8593 13.9792C29.9116 13.9155 29.9508 13.8422 29.9747 13.7634C29.9986 13.6846 30.0066 13.6018 29.9984 13.5199C29.9901 13.4379 29.9658 13.3584 29.9267 13.2859C29.8877 13.2134 29.8347 13.1493 29.7708 13.0974Z" fill="#58AD70"/>
</g>
<defs>
<clipPath id="clip0_8_39">
<rect width="30" height="26.6667" fill="white"/>
</clipPath>
</defs>
</svg>
