<svg width="22" height="19" viewBox="0 0 22 19" fill="none" xmlns="http://www.w3.org/2000/svg">
<g clip-path="url(#clip0_8_37)">
<path d="M14.646 10.079H19.17C19.1607 10.0503 19.1487 10.0097 19.134 9.957C19.1254 9.92051 19.1141 9.88474 19.1 9.85L16.065 2.75H5.927L2.892 9.85C2.88267 9.87867 2.87067 9.91933 2.856 9.972C2.84688 10.0088 2.83518 10.0449 2.821 10.08H7.344L8.7 12.827H13.281L14.646 10.079ZM21.99 10.508V17.408C21.9869 17.65 21.8894 17.8812 21.7183 18.0523C21.5472 18.2234 21.316 18.3209 21.074 18.324H0.916C0.795785 18.3249 0.676646 18.3013 0.565901 18.2545C0.455155 18.2078 0.355141 18.1388 0.272 18.052C0.1851 17.9691 0.116125 17.8693 0.0693401 17.7587C0.0225555 17.6481 -0.00104436 17.5291 -5.59594e-08 17.409V10.509C0.00253005 9.90386 0.124177 9.30514 0.358 8.747L3.765 0.845C3.87082 0.59461 4.05366 0.384447 4.287 0.245C4.50871 0.0923416 4.76992 0.00723931 5.039 0L16.951 0C17.2189 0.00688299 17.4791 0.09129 17.7 0.243C17.9333 0.382447 18.1162 0.59261 18.222 0.843L21.629 8.743C21.8627 9.30083 21.9843 9.8992 21.987 10.504L21.99 10.508Z" fill="#E6E6E6"/>
</g>
<defs>
<clipPath id="clip0_8_37">
<rect width="21.99" height="18.325" fill="white"/>
</clipPath>
</defs>
</svg>
