<svg width="20" height="23" viewBox="0 0 20 23" fill="none" xmlns="http://www.w3.org/2000/svg">
<g clip-path="url(#clip0_8_35)">
<path d="M14 13.5714C12.7188 13.5714 12.1027 14.2857 10 14.2857C7.89732 14.2857 7.28571 13.5714 6 13.5714C2.6875 13.5714 0 16.2589 0 19.5714V20.7143C0 21.8973 0.959821 22.8571 2.14286 22.8571H17.8571C19.0402 22.8571 20 21.8973 20 20.7143V19.5714C20 16.2589 17.3125 13.5714 14 13.5714ZM17.8571 20.7143H2.14286V19.5714C2.14286 17.4464 3.875 15.7143 6 15.7143C6.65179 15.7143 7.70982 16.4286 10 16.4286C12.308 16.4286 13.3438 15.7143 14 15.7143C16.125 15.7143 17.8571 17.4464 17.8571 19.5714V20.7143ZM10 12.8571C13.5491 12.8571 16.4286 9.97768 16.4286 6.42857C16.4286 2.87946 13.5491 0 10 0C6.45089 0 3.57143 2.87946 3.57143 6.42857C3.57143 9.97768 6.45089 12.8571 10 12.8571ZM10 2.14286C12.3616 2.14286 14.2857 4.06697 14.2857 6.42857C14.2857 8.79018 12.3616 10.7143 10 10.7143C7.63839 10.7143 5.71429 8.79018 5.71429 6.42857C5.71429 4.06697 7.63839 2.14286 10 2.14286Z" fill="#E6E6E6"/>
</g>
<defs>
<clipPath id="clip0_8_35">
<rect width="20" height="22.8571" fill="white"/>
</clipPath>
</defs>
</svg>
