<svg width="7" height="13" viewBox="0 0 7 13" fill="none" xmlns="http://www.w3.org/2000/svg">
<path d="M5.698 0.0441835C5.64553 0.0658823 4.37935 1.38951 2.88233 2.98221C-0.076748 6.12855 0.000201896 6.03307 0.000201896 6.48007C0.000201896 6.92272 -0.076748 6.83159 2.7739 9.85641C4.21846 11.3927 5.46365 12.712 5.5406 12.7858C5.72248 12.968 5.98131 13.0418 6.17718 12.9767C6.50597 12.8682 6.71234 12.5557 6.74382 12.1174C6.7753 11.6574 6.84525 11.7442 4.28841 9.03619C3.01524 7.68652 1.95543 6.55818 1.93095 6.5278C1.89597 6.48875 2.35067 5.98099 4.21496 4.0064C6.23665 1.86255 6.55494 1.50669 6.62839 1.32442C6.82077 0.851381 6.67386 0.326269 6.28911 0.0789016C6.1492 -0.0122336 5.85539 -0.0252529 5.698 0.0441835Z" fill="white"/>
</svg>
