<svg width="20" height="22" viewBox="0 0 20 22" fill="none" xmlns="http://www.w3.org/2000/svg">
<path d="M8.66664 8C8.53478 8 8.40589 8.0391 8.29626 8.11235C8.18662 8.18561 8.10118 8.28973 8.05072 8.41154C8.00026 8.53336 7.98706 8.66741 8.01278 8.79673C8.0385 8.92605 8.102 9.04484 8.19523 9.13807C8.28847 9.23131 8.40726 9.2948 8.53658 9.32052C8.6659 9.34625 8.79994 9.33304 8.92176 9.28259C9.04358 9.23213 9.1477 9.14668 9.22095 9.03705C9.2942 8.92741 9.3333 8.79852 9.3333 8.66667C9.3333 8.48986 9.26307 8.32029 9.13804 8.19526C9.01302 8.07024 8.84345 8 8.66664 8ZM18.7708 3.48667L10.7708 0.153333C10.5247 0.06029 10.265 0.0084832 10.0021 0C9.739 0.00830414 9.47912 0.0599708 9.23289 0.152917L1.23289 3.48625C0.867634 3.63752 0.555496 3.8938 0.336013 4.22262C0.11653 4.55143 -0.000422222 4.93799 -2.95319e-05 5.33333C-2.95319e-05 13.6042 4.7708 19.3217 9.22914 21.18C9.47285 21.2813 9.73417 21.3334 9.9981 21.3334C10.262 21.3334 10.5233 21.2813 10.7671 21.18C14.3371 19.6921 20 14.5542 20 5.33333C20.0002 4.93858 19.8836 4.55258 19.6649 4.22397C19.4461 3.89535 19.1351 3.63881 18.7708 3.48667V3.48667ZM15.3333 10.6667H14.8283C13.6404 10.6667 13.0454 12.1029 13.8854 12.9429L14.2429 13.3C14.3679 13.425 14.4382 13.5946 14.4382 13.7715C14.4382 13.9483 14.3679 14.1179 14.2429 14.2429C14.1178 14.368 13.9483 14.4382 13.7714 14.4382C13.5946 14.4382 13.425 14.368 13.3 14.2429L12.9429 13.8854C12.1029 13.0454 10.6666 13.6404 10.6666 14.8283V15.3333C10.6666 15.5101 10.5964 15.6797 10.4714 15.8047C10.3464 15.9298 10.1768 16 9.99997 16C9.82316 16 9.65359 15.9298 9.52857 15.8047C9.40354 15.6797 9.3333 15.5101 9.3333 15.3333V14.8283C9.3333 13.6404 7.89705 13.0454 7.05705 13.8854L6.69997 14.2429C6.63806 14.3048 6.56456 14.3539 6.48366 14.3874C6.40277 14.421 6.31607 14.4382 6.22851 14.4382C6.14095 14.4382 6.05425 14.421 5.97336 14.3874C5.89247 14.3539 5.81897 14.3048 5.75705 14.2429C5.69514 14.181 5.64603 14.1075 5.61252 14.0266C5.57901 13.9457 5.56177 13.859 5.56177 13.7715C5.56177 13.6839 5.57901 13.5972 5.61252 13.5163C5.64603 13.4354 5.69514 13.3619 5.75705 13.3L6.11455 12.9429C6.95455 12.1029 6.35955 10.6667 5.17164 10.6667H4.66664C4.48983 10.6667 4.32026 10.5964 4.19523 10.4714C4.07021 10.3464 3.99997 10.1768 3.99997 10C3.99997 9.82319 4.07021 9.65362 4.19523 9.5286C4.32026 9.40357 4.48983 9.33333 4.66664 9.33333H5.17164C6.35955 9.33333 6.95455 7.89708 6.11455 7.05708L5.75705 6.7C5.63202 6.57496 5.56177 6.40537 5.56177 6.22854C5.56177 6.05171 5.63202 5.88212 5.75705 5.75708C5.88209 5.63204 6.05168 5.5618 6.22851 5.5618C6.40534 5.5618 6.57493 5.63204 6.69997 5.75708L7.05705 6.11458C7.89705 6.95458 9.3333 6.35958 9.3333 5.17167V4.66667C9.3333 4.48986 9.40354 4.32029 9.52857 4.19526C9.65359 4.07024 9.82316 4 9.99997 4C10.1768 4 10.3464 4.07024 10.4714 4.19526C10.5964 4.32029 10.6666 4.48986 10.6666 4.66667V5.17167C10.6666 6.35958 12.1029 6.95458 12.9429 6.11458L13.3 5.75708C13.425 5.63204 13.5946 5.5618 13.7714 5.5618C13.9483 5.5618 14.1178 5.63204 14.2429 5.75708C14.3679 5.88212 14.4382 6.05171 14.4382 6.22854C14.4382 6.40537 14.3679 6.57496 14.2429 6.7L13.8854 7.05708C13.0454 7.89708 13.6404 9.33333 14.8283 9.33333H15.3333C15.5101 9.33333 15.6797 9.40357 15.8047 9.5286C15.9297 9.65362 16 9.82319 16 10C16 10.1768 15.9297 10.3464 15.8047 10.4714C15.6797 10.5964 15.5101 10.6667 15.3333 10.6667ZM11.3333 10.6667C11.2014 10.6667 11.0726 10.7058 10.9629 10.779C10.8533 10.8523 10.7678 10.9564 10.7174 11.0782C10.6669 11.2 10.6537 11.3341 10.6794 11.4634C10.7052 11.5927 10.7687 11.7115 10.8619 11.8047C10.9551 11.898 11.0739 11.9615 11.2032 11.9872C11.3326 12.0129 11.4666 11.9997 11.5884 11.9493C11.7102 11.8988 11.8144 11.8133 11.8876 11.7037C11.9609 11.5941 12 11.4652 12 11.3333C12 11.1565 11.9297 10.987 11.8047 10.8619C11.6797 10.7369 11.5101 10.6667 11.3333 10.6667Z" fill="#E6E6E6"/>
</svg>
